<mxfile host="app.diagrams.net" modified="2023-06-14T02:19:35.978Z" agent="Mozilla/5.0 (Macintosh; Intel Mac OS X 10_15_7) AppleWebKit/537.36 (KHTML, like Gecko) Chrome/109.0.0.0 Safari/537.36" etag="5ncub1LW3ItQlTmHcGf_" version="21.2.9" type="github">
  <diagram id="rYdwiMb5jvszhZctyrXV" name="第 1 页">
    <mxGraphModel dx="554" dy="568" grid="0" gridSize="10" guides="1" tooltips="1" connect="1" arrows="1" fold="1" page="0" pageScale="1" pageWidth="1920" pageHeight="1200" math="0" shadow="0">
      <root>
        <mxCell id="0" />
        <mxCell id="1" parent="0" />
        <mxCell id="fc0Et_haitifpb5bSG0c-15" value="" style="rounded=0;whiteSpace=wrap;html=1;fillColor=none;dashed=1;dashPattern=1 1;" parent="1" vertex="1">
          <mxGeometry x="605" y="391" width="689" height="535" as="geometry" />
        </mxCell>
        <mxCell id="fc0Et_haitifpb5bSG0c-1" value="" style="rounded=1;whiteSpace=wrap;html=1;dashed=1;dashPattern=1 1;" parent="1" vertex="1">
          <mxGeometry x="655" y="442" width="493" height="253" as="geometry" />
        </mxCell>
        <mxCell id="fc0Et_haitifpb5bSG0c-2" value="master0" style="ellipse;whiteSpace=wrap;html=1;aspect=fixed;fillColor=#008a00;fontColor=#ffffff;strokeColor=#005700;" parent="1" vertex="1">
          <mxGeometry x="666" y="468" width="84" height="84" as="geometry" />
        </mxCell>
        <mxCell id="fc0Et_haitifpb5bSG0c-3" value="slave0&lt;br&gt;" style="ellipse;whiteSpace=wrap;html=1;aspect=fixed;fillColor=#008a00;fontColor=#ffffff;strokeColor=#005700;" parent="1" vertex="1">
          <mxGeometry x="668" y="593" width="84" height="84" as="geometry" />
        </mxCell>
        <mxCell id="fc0Et_haitifpb5bSG0c-4" value="master1&lt;br&gt;" style="ellipse;whiteSpace=wrap;html=1;aspect=fixed;fillColor=#008a00;fontColor=#ffffff;strokeColor=#005700;" parent="1" vertex="1">
          <mxGeometry x="855" y="473" width="83" height="83" as="geometry" />
        </mxCell>
        <mxCell id="fc0Et_haitifpb5bSG0c-5" value="slave1&lt;br&gt;" style="ellipse;whiteSpace=wrap;html=1;aspect=fixed;fillColor=#008a00;fontColor=#ffffff;strokeColor=#005700;" parent="1" vertex="1">
          <mxGeometry x="857" y="598" width="83" height="83" as="geometry" />
        </mxCell>
        <mxCell id="fc0Et_haitifpb5bSG0c-6" value="master2&lt;br&gt;" style="ellipse;whiteSpace=wrap;html=1;aspect=fixed;fillColor=#008a00;fontColor=#ffffff;strokeColor=#005700;" parent="1" vertex="1">
          <mxGeometry x="1028" y="473" width="83" height="83" as="geometry" />
        </mxCell>
        <mxCell id="fc0Et_haitifpb5bSG0c-7" value="slave2&lt;br&gt;" style="ellipse;whiteSpace=wrap;html=1;aspect=fixed;fillColor=#008a00;fontColor=#ffffff;strokeColor=#005700;" parent="1" vertex="1">
          <mxGeometry x="1030" y="598" width="84" height="84" as="geometry" />
        </mxCell>
        <mxCell id="fc0Et_haitifpb5bSG0c-16" value="K8s集群" style="text;html=1;strokeColor=none;fillColor=none;align=center;verticalAlign=middle;whiteSpace=wrap;rounded=0;dashed=1;" parent="1" vertex="1">
          <mxGeometry x="1232" y="394" width="60" height="30" as="geometry" />
        </mxCell>
        <mxCell id="fc0Et_haitifpb5bSG0c-70" value="2 服务发现：&lt;br&gt;客户端请求获取redis集群拓扑" style="text;html=1;strokeColor=none;fillColor=none;align=center;verticalAlign=middle;whiteSpace=wrap;rounded=0;" parent="1" vertex="1">
          <mxGeometry x="460" y="2123" width="86" height="40" as="geometry" />
        </mxCell>
        <mxCell id="k7kp1MV-_mNu26BSV135-75" value="subnet&lt;br&gt;（BGP或OVS实现）" style="text;html=1;strokeColor=none;fillColor=none;align=center;verticalAlign=middle;whiteSpace=wrap;rounded=0;dashed=1;dashPattern=1 1;" parent="1" vertex="1">
          <mxGeometry x="2259" y="198" width="117" height="30" as="geometry" />
        </mxCell>
        <mxCell id="k7kp1MV-_mNu26BSV135-80" value="redis集群" style="text;html=1;strokeColor=none;fillColor=none;align=center;verticalAlign=middle;whiteSpace=wrap;rounded=0;dashed=1;dashPattern=1 1;" parent="1" vertex="1">
          <mxGeometry x="1040.13" y="445" width="60" height="30" as="geometry" />
        </mxCell>
        <mxCell id="YecgM4xgUUCfINCVM_Nl-3" style="edgeStyle=orthogonalEdgeStyle;rounded=0;orthogonalLoop=1;jettySize=auto;html=1;exitX=0;exitY=0.5;exitDx=0;exitDy=0;exitPerimeter=0;entryX=1;entryY=0.5;entryDx=0;entryDy=0;dashed=1;" parent="1" source="YecgM4xgUUCfINCVM_Nl-1" target="fc0Et_haitifpb5bSG0c-2" edge="1">
          <mxGeometry relative="1" as="geometry" />
        </mxCell>
        <mxCell id="YecgM4xgUUCfINCVM_Nl-4" style="edgeStyle=orthogonalEdgeStyle;rounded=0;orthogonalLoop=1;jettySize=auto;html=1;exitX=0;exitY=0.5;exitDx=0;exitDy=0;exitPerimeter=0;entryX=0.5;entryY=1;entryDx=0;entryDy=0;dashed=1;" parent="1" source="YecgM4xgUUCfINCVM_Nl-1" target="fc0Et_haitifpb5bSG0c-3" edge="1">
          <mxGeometry relative="1" as="geometry" />
        </mxCell>
        <mxCell id="YecgM4xgUUCfINCVM_Nl-5" style="edgeStyle=orthogonalEdgeStyle;rounded=0;orthogonalLoop=1;jettySize=auto;html=1;exitX=1;exitY=0.5;exitDx=0;exitDy=0;exitPerimeter=0;entryX=1;entryY=0.5;entryDx=0;entryDy=0;dashed=1;" parent="1" source="YecgM4xgUUCfINCVM_Nl-1" target="fc0Et_haitifpb5bSG0c-4" edge="1">
          <mxGeometry relative="1" as="geometry">
            <Array as="points">
              <mxPoint x="977" y="776" />
              <mxPoint x="977" y="515" />
            </Array>
          </mxGeometry>
        </mxCell>
        <mxCell id="YecgM4xgUUCfINCVM_Nl-6" style="edgeStyle=orthogonalEdgeStyle;rounded=0;orthogonalLoop=1;jettySize=auto;html=1;exitX=1;exitY=0.5;exitDx=0;exitDy=0;exitPerimeter=0;entryX=1;entryY=0.5;entryDx=0;entryDy=0;dashed=1;" parent="1" source="YecgM4xgUUCfINCVM_Nl-1" target="fc0Et_haitifpb5bSG0c-5" edge="1">
          <mxGeometry relative="1" as="geometry">
            <Array as="points">
              <mxPoint x="977" y="776" />
              <mxPoint x="977" y="639" />
            </Array>
          </mxGeometry>
        </mxCell>
        <mxCell id="YecgM4xgUUCfINCVM_Nl-9" style="edgeStyle=orthogonalEdgeStyle;rounded=0;orthogonalLoop=1;jettySize=auto;html=1;exitX=1;exitY=0.5;exitDx=0;exitDy=0;exitPerimeter=0;entryX=1;entryY=0.5;entryDx=0;entryDy=0;dashed=1;" parent="1" target="fc0Et_haitifpb5bSG0c-7" edge="1">
          <mxGeometry relative="1" as="geometry">
            <Array as="points">
              <mxPoint x="1131" y="776" />
              <mxPoint x="1131" y="640" />
            </Array>
            <mxPoint x="937" y="776" as="sourcePoint" />
          </mxGeometry>
        </mxCell>
        <mxCell id="YecgM4xgUUCfINCVM_Nl-10" style="edgeStyle=orthogonalEdgeStyle;rounded=0;orthogonalLoop=1;jettySize=auto;html=1;exitX=1;exitY=0.5;exitDx=0;exitDy=0;exitPerimeter=0;entryX=1;entryY=0.5;entryDx=0;entryDy=0;dashed=1;" parent="1" target="fc0Et_haitifpb5bSG0c-6" edge="1">
          <mxGeometry relative="1" as="geometry">
            <mxPoint x="937" y="776" as="sourcePoint" />
          </mxGeometry>
        </mxCell>
        <mxCell id="YecgM4xgUUCfINCVM_Nl-1" value="&lt;p style=&quot;line-height: 150%;&quot;&gt;cert:xxx&lt;br&gt;key:xxx&lt;br&gt;ca-cert:xxx&lt;/p&gt;" style="shape=cylinder3;whiteSpace=wrap;html=1;boundedLbl=1;backgroundOutline=1;size=15;" parent="1" vertex="1">
          <mxGeometry x="847" y="729" width="65" height="94" as="geometry" />
        </mxCell>
        <mxCell id="YecgM4xgUUCfINCVM_Nl-11" value="&lt;p style=&quot;line-height: 150%;&quot;&gt;volume&lt;br&gt;mount &lt;br&gt;&lt;/p&gt;" style="text;html=1;strokeColor=none;fillColor=none;align=center;verticalAlign=middle;whiteSpace=wrap;rounded=0;" parent="1" vertex="1">
          <mxGeometry x="741" y="786" width="89" height="30" as="geometry" />
        </mxCell>
        <mxCell id="YecgM4xgUUCfINCVM_Nl-13" value="secret" style="text;html=1;strokeColor=none;fillColor=none;align=center;verticalAlign=middle;whiteSpace=wrap;rounded=0;" parent="1" vertex="1">
          <mxGeometry x="851" y="729" width="52" height="28" as="geometry" />
        </mxCell>
        <mxCell id="YecgM4xgUUCfINCVM_Nl-20" style="edgeStyle=orthogonalEdgeStyle;rounded=0;orthogonalLoop=1;jettySize=auto;html=1;exitX=0;exitY=0.3333333333333333;exitDx=0;exitDy=0;exitPerimeter=0;entryX=1;entryY=0;entryDx=0;entryDy=15;entryPerimeter=0;dashed=1;" parent="1" source="YecgM4xgUUCfINCVM_Nl-14" target="YecgM4xgUUCfINCVM_Nl-1" edge="1">
          <mxGeometry relative="1" as="geometry">
            <Array as="points">
              <mxPoint x="1196" y="606" />
              <mxPoint x="1196" y="744" />
            </Array>
          </mxGeometry>
        </mxCell>
        <mxCell id="YecgM4xgUUCfINCVM_Nl-14" value="Actor" style="shape=umlActor;verticalLabelPosition=bottom;verticalAlign=top;html=1;outlineConnect=0;" parent="1" vertex="1">
          <mxGeometry x="1238" y="586" width="30" height="60" as="geometry" />
        </mxCell>
        <mxCell id="YecgM4xgUUCfINCVM_Nl-19" value="&lt;p style=&quot;line-height: 150%;&quot;&gt;1 用户预设TLS证书相关配置&lt;/p&gt;" style="text;html=1;strokeColor=none;fillColor=none;align=center;verticalAlign=middle;whiteSpace=wrap;rounded=0;" parent="1" vertex="1">
          <mxGeometry x="1204" y="688" width="60" height="30" as="geometry" />
        </mxCell>
        <mxCell id="5_malPcZnpavTInKWlDv-19" style="edgeStyle=orthogonalEdgeStyle;rounded=0;orthogonalLoop=1;jettySize=auto;html=1;exitX=0;exitY=0.5;exitDx=0;exitDy=0;entryX=0.5;entryY=1;entryDx=0;entryDy=0;entryPerimeter=0;dashed=1;startArrow=none;startFill=0;endArrow=classic;endFill=1;" parent="1" source="YecgM4xgUUCfINCVM_Nl-21" target="YecgM4xgUUCfINCVM_Nl-1" edge="1">
          <mxGeometry relative="1" as="geometry" />
        </mxCell>
        <mxCell id="YecgM4xgUUCfINCVM_Nl-21" value="redis-operator" style="rounded=1;whiteSpace=wrap;html=1;fillColor=#b1ddf0;strokeColor=#10739e;" parent="1" vertex="1">
          <mxGeometry x="1097" y="830" width="120" height="60" as="geometry" />
        </mxCell>
        <mxCell id="YecgM4xgUUCfINCVM_Nl-23" value="&lt;p style=&quot;line-height: 150%;&quot;&gt;2 operator将secret挂载至容器，使用tls证书配置启动redis进行数据加密&lt;/p&gt;" style="text;html=1;strokeColor=none;fillColor=none;align=center;verticalAlign=middle;whiteSpace=wrap;rounded=0;" parent="1" vertex="1">
          <mxGeometry x="913" y="874" width="135" height="30" as="geometry" />
        </mxCell>
        <mxCell id="YecgM4xgUUCfINCVM_Nl-28" style="edgeStyle=orthogonalEdgeStyle;rounded=0;orthogonalLoop=1;jettySize=auto;html=1;exitX=0.5;exitY=1;exitDx=0;exitDy=0;dashed=1;" parent="1" source="YecgM4xgUUCfINCVM_Nl-11" target="YecgM4xgUUCfINCVM_Nl-11" edge="1">
          <mxGeometry relative="1" as="geometry" />
        </mxCell>
        <mxCell id="YecgM4xgUUCfINCVM_Nl-29" value="&lt;p style=&quot;line-height: 150%;&quot;&gt;volume&lt;br&gt;mount&lt;/p&gt;" style="text;html=1;strokeColor=none;fillColor=none;align=center;verticalAlign=middle;whiteSpace=wrap;rounded=0;" parent="1" vertex="1">
          <mxGeometry x="929" y="786" width="89" height="30" as="geometry" />
        </mxCell>
        <mxCell id="5_malPcZnpavTInKWlDv-7" value="" style="curved=1;endArrow=classic;html=1;rounded=0;dashed=1;exitX=1;exitY=0;exitDx=0;exitDy=0;startArrow=classic;startFill=1;entryX=0;entryY=0;entryDx=0;entryDy=0;" parent="1" source="fc0Et_haitifpb5bSG0c-2" target="fc0Et_haitifpb5bSG0c-4" edge="1">
          <mxGeometry width="50" height="50" relative="1" as="geometry">
            <mxPoint x="766" y="500" as="sourcePoint" />
            <mxPoint x="867" y="490" as="targetPoint" />
            <Array as="points">
              <mxPoint x="746" y="457" />
              <mxPoint x="830" y="447" />
              <mxPoint x="861" y="466" />
            </Array>
          </mxGeometry>
        </mxCell>
        <mxCell id="5_malPcZnpavTInKWlDv-8" value="" style="curved=1;endArrow=classic;html=1;rounded=0;dashed=1;exitX=0.843;exitY=0.146;exitDx=0;exitDy=0;entryX=0;entryY=0;entryDx=0;entryDy=0;startArrow=classic;startFill=1;exitPerimeter=0;" parent="1" source="fc0Et_haitifpb5bSG0c-4" target="fc0Et_haitifpb5bSG0c-6" edge="1">
          <mxGeometry width="50" height="50" relative="1" as="geometry">
            <mxPoint x="928.9984848098359" y="485.3015151901641" as="sourcePoint" />
            <mxPoint x="1058.3" y="494.9999999999999" as="targetPoint" />
            <Array as="points">
              <mxPoint x="937.3" y="462" />
              <mxPoint x="968" y="444" />
              <mxPoint x="1015" y="467" />
            </Array>
          </mxGeometry>
        </mxCell>
        <mxCell id="5_malPcZnpavTInKWlDv-9" value="" style="curved=1;endArrow=classic;html=1;rounded=0;dashed=1;exitX=1;exitY=0;exitDx=0;exitDy=0;startArrow=classic;startFill=1;" parent="1" source="fc0Et_haitifpb5bSG0c-3" edge="1">
          <mxGeometry width="50" height="50" relative="1" as="geometry">
            <mxPoint x="738.9984848098359" y="601.3015151901641" as="sourcePoint" />
            <mxPoint x="868.3" y="610.9999999999999" as="targetPoint" />
            <Array as="points">
              <mxPoint x="747.3" y="578" />
              <mxPoint x="831.3" y="568" />
              <mxPoint x="862.3" y="587" />
            </Array>
          </mxGeometry>
        </mxCell>
        <mxCell id="5_malPcZnpavTInKWlDv-10" value="" style="curved=1;endArrow=classic;html=1;rounded=0;dashed=1;exitX=1;exitY=0;exitDx=0;exitDy=0;entryX=0;entryY=0;entryDx=0;entryDy=0;startArrow=classic;startFill=1;" parent="1" edge="1" target="fc0Et_haitifpb5bSG0c-7">
          <mxGeometry width="50" height="50" relative="1" as="geometry">
            <mxPoint x="928.9984848098359" y="612.3015151901641" as="sourcePoint" />
            <mxPoint x="1015.1550685807615" y="612.1550685807616" as="targetPoint" />
            <Array as="points">
              <mxPoint x="937.3" y="589" />
              <mxPoint x="968" y="571" />
              <mxPoint x="1015" y="594" />
            </Array>
          </mxGeometry>
        </mxCell>
        <mxCell id="5_malPcZnpavTInKWlDv-13" value="&lt;p style=&quot;line-height: 150%;&quot;&gt;&lt;span style=&quot;color: rgb(51, 51, 51); font-family: &amp;quot;Helvetica Neue&amp;quot;, Helvetica, Arial, &amp;quot;Hiragino Sans GB&amp;quot;, &amp;quot;Hiragino Sans GB W3&amp;quot;, &amp;quot;Microsoft YaHei UI&amp;quot;, &amp;quot;Microsoft YaHei&amp;quot;, sans-serif; text-align: start;&quot;&gt;&lt;font style=&quot;font-size: 12px;&quot;&gt;encrypted communication&lt;/font&gt;&lt;/span&gt;&lt;/p&gt;" style="text;html=1;strokeColor=none;fillColor=none;align=center;verticalAlign=middle;whiteSpace=wrap;rounded=0;" parent="1" vertex="1">
          <mxGeometry x="764" y="578" width="80" height="30" as="geometry" />
        </mxCell>
        <mxCell id="5_malPcZnpavTInKWlDv-14" value="&lt;p style=&quot;line-height: 150%;&quot;&gt;&lt;span style=&quot;color: rgb(51, 51, 51); font-family: &amp;quot;Helvetica Neue&amp;quot;, Helvetica, Arial, &amp;quot;Hiragino Sans GB&amp;quot;, &amp;quot;Hiragino Sans GB W3&amp;quot;, &amp;quot;Microsoft YaHei UI&amp;quot;, &amp;quot;Microsoft YaHei&amp;quot;, sans-serif; text-align: start;&quot;&gt;&lt;font style=&quot;font-size: 12px;&quot;&gt;encrypted communication&lt;/font&gt;&lt;/span&gt;&lt;/p&gt;" style="text;html=1;strokeColor=none;fillColor=none;align=center;verticalAlign=middle;whiteSpace=wrap;rounded=0;" parent="1" vertex="1">
          <mxGeometry x="768" y="460" width="72" height="30" as="geometry" />
        </mxCell>
        <mxCell id="5_malPcZnpavTInKWlDv-15" value="&lt;p style=&quot;line-height: 150%;&quot;&gt;&lt;span style=&quot;color: rgb(51, 51, 51); font-family: &amp;quot;Helvetica Neue&amp;quot;, Helvetica, Arial, &amp;quot;Hiragino Sans GB&amp;quot;, &amp;quot;Hiragino Sans GB W3&amp;quot;, &amp;quot;Microsoft YaHei UI&amp;quot;, &amp;quot;Microsoft YaHei&amp;quot;, sans-serif; text-align: start;&quot;&gt;&lt;font style=&quot;font-size: 11px;&quot;&gt;encrypted communication&lt;/font&gt;&lt;/span&gt;&lt;/p&gt;" style="text;html=1;strokeColor=none;fillColor=none;align=center;verticalAlign=middle;whiteSpace=wrap;rounded=0;" parent="1" vertex="1">
          <mxGeometry x="947" y="464" width="66" height="30" as="geometry" />
        </mxCell>
        <mxCell id="5_malPcZnpavTInKWlDv-16" value="&lt;p style=&quot;line-height: 150%;&quot;&gt;&lt;span style=&quot;color: rgb(51, 51, 51); font-family: &amp;quot;Helvetica Neue&amp;quot;, Helvetica, Arial, &amp;quot;Hiragino Sans GB&amp;quot;, &amp;quot;Hiragino Sans GB W3&amp;quot;, &amp;quot;Microsoft YaHei UI&amp;quot;, &amp;quot;Microsoft YaHei&amp;quot;, sans-serif; text-align: start;&quot;&gt;&lt;font style=&quot;font-size: 12px;&quot;&gt;encrypted communication&lt;/font&gt;&lt;/span&gt;&lt;/p&gt;" style="text;html=1;strokeColor=none;fillColor=none;align=center;verticalAlign=middle;whiteSpace=wrap;rounded=0;" parent="1" vertex="1">
          <mxGeometry x="954" y="592" width="60" height="30" as="geometry" />
        </mxCell>
      </root>
    </mxGraphModel>
  </diagram>
</mxfile>
